<svg width="25" height="25" viewBox="0 0 25 25" fill="none" xmlns="http://www.w3.org/2000/svg">
<path d="M12.5 2.34387C10.4529 2.34387 8.48957 3.15709 7.04202 4.60464C5.59447 6.05219 4.78125 8.01548 4.78125 10.0626V10.6251C5.09375 14.8543 8.60417 18.2553 12.5 22.6564C16.5677 18.0626 20.2188 14.5835 20.2188 10.0626C20.2188 8.01548 19.4055 6.05219 17.958 4.60464C16.5104 3.15709 14.5471 2.34387 12.5 2.34387ZM12.5 6.35429C13.2347 6.35429 13.9529 6.57222 14.5637 6.9805C15.1745 7.38878 15.6504 7.96906 15.9314 8.64793C16.2123 9.32679 16.2855 10.0737 16.1418 10.7942C15.9981 11.5147 15.6439 12.1764 15.124 12.6955C14.6042 13.2147 13.942 13.568 13.2213 13.7107C12.5006 13.8534 11.7537 13.7791 11.0753 13.4972C10.3968 13.2153 9.81719 12.7385 9.40977 12.1272C9.00235 11.5158 8.78543 10.7973 8.78646 10.0626C8.78784 9.07863 9.17969 8.13542 9.87597 7.44012C10.5722 6.74482 11.516 6.35429 12.5 6.35429Z" stroke="black" stroke-linecap="round" stroke-linejoin="round"/>
</svg>
