<svg width="30" height="29" viewBox="0 0 30 29" fill="none" xmlns="http://www.w3.org/2000/svg">
<path fill-rule="evenodd" clip-rule="evenodd" d="M20.4545 11.0953C20.4545 12.4373 19.8798 13.7244 18.8569 14.6733C17.834 15.6223 16.4466 16.1554 15 16.1554C13.5533 16.1554 12.1659 15.6223 11.143 14.6733C10.1201 13.7244 9.54541 12.4373 9.54541 11.0953C9.54541 9.75328 10.1201 8.46623 11.143 7.51728C12.1659 6.56833 13.5533 6.03522 15 6.03522C16.4466 6.03522 17.834 6.56833 18.8569 7.51728C19.8798 8.46623 20.4545 9.75328 20.4545 11.0953ZM17.7272 11.0953C17.7272 11.7663 17.4399 12.4098 16.9284 12.8843C16.417 13.3588 15.7233 13.6253 15 13.6253C14.2766 13.6253 13.5829 13.3588 13.0715 12.8843C12.56 12.4098 12.2727 11.7663 12.2727 11.0953C12.2727 10.4243 12.56 9.78077 13.0715 9.30629C13.5829 8.83182 14.2766 8.56526 15 8.56526C15.7233 8.56526 16.417 8.83182 16.9284 9.30629C17.4399 9.78077 17.7272 10.4243 17.7272 11.0953Z" fill="#FF4057"/>
<path fill-rule="evenodd" clip-rule="evenodd" d="M15 0.975098C6.71591 0.975098 0 7.20533 0 14.8903C0 22.5753 6.71591 28.8056 15 28.8056C23.2841 28.8056 30 22.5753 30 14.8903C30 7.20533 23.2841 0.975098 15 0.975098ZM2.72727 14.8903C2.72727 17.5342 3.69955 19.9681 5.32909 21.9011C6.4735 20.5069 7.94986 19.377 9.64286 18.5998C11.3359 17.8225 13.1997 17.4188 15.0886 17.4204C16.9532 17.4187 18.7935 17.8119 20.4695 18.57C22.1454 19.3281 23.6127 20.431 24.7595 21.7948C25.9411 20.3572 26.7366 18.6793 27.0803 16.8999C27.424 15.1205 27.306 13.2908 26.7361 11.562C26.1662 9.83332 25.1608 8.25535 23.8029 6.95869C22.4451 5.66203 20.774 4.68396 18.9278 4.1054C17.0816 3.52684 15.1135 3.36443 13.1862 3.63161C11.2589 3.89878 9.4279 4.58786 7.84469 5.64183C6.26147 6.69579 4.97156 8.08435 4.08168 9.6926C3.19179 11.3009 2.72752 13.0826 2.72727 14.8903ZM15 26.2755C12.1827 26.2794 9.45036 25.3803 7.26545 23.7303C8.14491 22.5623 9.31546 21.6087 10.6775 20.9506C12.0396 20.2925 13.5529 19.9494 15.0886 19.9504C16.6052 19.9493 18.1002 20.2838 19.4494 20.9263C20.7987 21.5687 21.9632 22.5005 22.8464 23.6443C20.6445 25.3479 17.8672 26.2792 15 26.2755Z" fill="#FF4057"/>
</svg>
