<svg width="24" height="24" viewBox="0 0 24 24" fill="none" xmlns="http://www.w3.org/2000/svg">
<path d="M4.615 19.0001C4.155 19.0001 3.771 18.8461 3.463 18.5381C3.15433 18.2295 3 17.8451 3 17.3851V6.61512C3 6.15512 3.15433 5.77112 3.463 5.46312C3.771 5.15446 4.155 5.00012 4.615 5.00012H19.385C19.845 5.00012 20.229 5.15446 20.537 5.46312C20.8457 5.77112 21 6.15512 21 6.61512V17.3851C21 17.8451 20.846 18.2291 20.538 18.5371C20.2293 18.8458 19.845 19.0001 19.385 19.0001H4.615ZM12 12.1151L4 6.88512V17.3851C4 17.5645 4.05767 17.7118 4.173 17.8271C4.28833 17.9425 4.43567 18.0001 4.615 18.0001H19.385C19.5643 18.0001 19.7117 17.9425 19.827 17.8271C19.9423 17.7118 20 17.5645 20 17.3851V6.88512L12 12.1151ZM12 11.0001L19.692 6.00012H4.308L12 11.0001ZM4 6.88512V6.00012V17.3851C4 17.5645 4.05767 17.7118 4.173 17.8271C4.28833 17.9425 4.43567 18.0001 4.615 18.0001H4V6.88512Z" fill="black"/>
</svg>
