<svg width="25" height="25" viewBox="0 0 25 25" fill="none" xmlns="http://www.w3.org/2000/svg">
<path d="M15.1074 13.9406C15.7629 13.5421 16.2701 12.9401 16.5516 12.2266C16.8331 11.513 16.8735 10.7269 16.6666 9.98821C16.4597 9.24953 16.0168 8.59879 15.4056 8.13525C14.7944 7.67171 14.0484 7.42081 13.2812 7.42081C12.5141 7.42081 11.7681 7.67171 11.1569 8.13525C10.5457 8.59879 10.1028 9.24953 9.89592 9.98821C9.68901 10.7269 9.72939 11.513 10.0109 12.2266C10.2924 12.9401 10.7996 13.5421 11.4551 13.9406C10.186 14.3264 9.07382 15.1084 8.28125 16.172C8.25047 16.213 8.22808 16.2597 8.21535 16.3094C8.20262 16.3591 8.1998 16.4108 8.20705 16.4616C8.21431 16.5124 8.23149 16.5613 8.25763 16.6054C8.28376 16.6495 8.31834 16.6881 8.35938 16.7189C8.40041 16.7497 8.44711 16.772 8.4968 16.7848C8.5465 16.7975 8.59821 16.8003 8.64899 16.7931C8.75155 16.7784 8.84409 16.7236 8.90625 16.6407C9.41565 15.9615 10.0762 15.4103 10.8356 15.0306C11.5949 14.6509 12.4323 14.4532 13.2812 14.4532C14.1302 14.4532 14.9676 14.6509 15.7269 15.0306C16.4863 15.4103 17.1469 15.9615 17.6562 16.6407C17.7184 16.7236 17.8109 16.7784 17.9135 16.7931C18.0161 16.8077 18.1202 16.781 18.2031 16.7189C18.286 16.6567 18.3408 16.5642 18.3554 16.4616C18.3701 16.3591 18.3434 16.2549 18.2812 16.172C17.4885 15.1086 16.3763 14.3267 15.1074 13.9406ZM10.5469 10.9376C10.5469 10.3968 10.7072 9.86815 11.0077 9.41848C11.3082 8.96882 11.7352 8.61835 12.2348 8.41139C12.7345 8.20443 13.2843 8.15028 13.8147 8.25579C14.3451 8.36129 14.8323 8.62172 15.2147 9.00413C15.5972 9.38654 15.8576 9.87375 15.9631 10.4042C16.0686 10.9346 16.0144 11.4844 15.8075 11.984C15.6005 12.4837 15.2501 12.9107 14.8004 13.2112C14.3507 13.5116 13.8221 13.672 13.2812 13.672C12.556 13.672 11.8605 13.3839 11.3478 12.8711C10.835 12.3583 10.5469 11.6628 10.5469 10.9376ZM20.3125 2.7345H6.25C5.9392 2.7345 5.64113 2.85796 5.42136 3.07773C5.20159 3.2975 5.07812 3.59557 5.07812 3.90637V6.64075H3.125C3.0214 6.64075 2.92204 6.6819 2.84879 6.75516C2.77553 6.82841 2.73438 6.92777 2.73438 7.03137C2.73438 7.13497 2.77553 7.23433 2.84879 7.30759C2.92204 7.38084 3.0214 7.422 3.125 7.422H5.07812V12.1095H3.125C3.0214 12.1095 2.92204 12.1507 2.84879 12.2239C2.77553 12.2972 2.73438 12.3965 2.73438 12.5001C2.73438 12.6037 2.77553 12.7031 2.84879 12.7763C2.92204 12.8496 3.0214 12.8907 3.125 12.8907H5.07812V17.5782H3.125C3.0214 17.5782 2.92204 17.6194 2.84879 17.6927C2.77553 17.7659 2.73438 17.8653 2.73438 17.9689C2.73438 18.0725 2.77553 18.1718 2.84879 18.2451C2.92204 18.3183 3.0214 18.3595 3.125 18.3595H5.07812V21.0939C5.07812 21.4047 5.20159 21.7027 5.42136 21.9225C5.64113 22.1423 5.9392 22.2657 6.25 22.2657H20.3125C20.6233 22.2657 20.9214 22.1423 21.1411 21.9225C21.3609 21.7027 21.4844 21.4047 21.4844 21.0939V3.90637C21.4844 3.59557 21.3609 3.2975 21.1411 3.07773C20.9214 2.85796 20.6233 2.7345 20.3125 2.7345ZM20.7031 21.0939C20.7031 21.1975 20.662 21.2968 20.5887 21.3701C20.5155 21.4433 20.4161 21.4845 20.3125 21.4845H6.25C6.1464 21.4845 6.04704 21.4433 5.97379 21.3701C5.90053 21.2968 5.85938 21.1975 5.85938 21.0939V3.90637C5.85938 3.80277 5.90053 3.70341 5.97379 3.63016C6.04704 3.5569 6.1464 3.51575 6.25 3.51575H20.3125C20.4161 3.51575 20.5155 3.5569 20.5887 3.63016C20.662 3.70341 20.7031 3.80277 20.7031 3.90637V21.0939Z" fill="black"/>
</svg>
