<svg width="25" height="25" viewBox="0 0 25 25" fill="none" xmlns="http://www.w3.org/2000/svg">
<path d="M21.5606 15.8332L16.9492 13.7697C16.7705 13.6923 16.5752 13.6607 16.3812 13.6778C16.1872 13.6948 16.0004 13.76 15.8379 13.8673C15.8249 13.8756 15.8125 13.8847 15.8008 13.8947L13.3789 15.9591C13.325 15.992 13.2638 16.0111 13.2008 16.0146C13.1378 16.0182 13.0749 16.0062 13.0176 15.9796C11.4317 15.214 9.79005 13.5851 9.02443 12.0177C8.99734 11.9609 8.98477 11.8982 8.98784 11.8353C8.99091 11.7724 9.00952 11.7113 9.042 11.6574L11.1123 9.19546C11.1221 9.18374 11.1309 9.17104 11.1397 9.15835C11.2467 8.99604 11.3116 8.80966 11.3287 8.616C11.3457 8.42234 11.3143 8.22748 11.2373 8.04897L9.16993 3.44546C9.07013 3.2123 8.89737 3.01781 8.67761 2.8912C8.45785 2.7646 8.20295 2.7127 7.95118 2.74331C6.72225 2.90534 5.59432 3.50919 4.77807 4.44207C3.96182 5.37496 3.51307 6.57308 3.51564 7.81264C3.51564 15.3517 9.64845 21.4845 17.1875 21.4845C18.4271 21.4871 19.6252 21.0383 20.5581 20.2221C21.491 19.4058 22.0948 18.2779 22.2568 17.049C22.2872 16.7984 22.2359 16.5446 22.1104 16.3255C21.9849 16.1065 21.7921 15.9338 21.5606 15.8332ZM21.4844 16.9513C21.3465 17.9921 20.8342 18.947 20.0434 19.6375C19.2526 20.328 18.2374 20.7069 17.1875 20.7033C10.0801 20.7033 4.29689 14.9201 4.29689 7.81264C4.29325 6.76279 4.67211 5.74755 5.36263 4.95673C6.05316 4.16592 7.00807 3.65367 8.04884 3.51577C8.06445 3.5148 8.0801 3.5148 8.09571 3.51577C8.17278 3.51643 8.24793 3.53986 8.3117 3.58313C8.37547 3.6264 8.42502 3.68757 8.45411 3.75893L10.5156 8.36245C10.5397 8.41871 10.5502 8.47984 10.5463 8.54091C10.5424 8.60197 10.5242 8.66127 10.4932 8.71401L8.42384 11.1749C8.41407 11.1876 8.40431 11.1994 8.39552 11.213C8.28527 11.3816 8.22035 11.5758 8.207 11.7768C8.19366 11.9778 8.23235 12.1788 8.31935 12.3605C9.16798 14.0978 10.918 15.8351 12.6748 16.6837C12.8577 16.7702 13.0599 16.8078 13.2617 16.7929C13.4635 16.778 13.6579 16.7111 13.8262 16.5988L13.8623 16.5714L16.2871 14.5089C16.339 14.4772 16.3976 14.4583 16.4583 14.4537C16.5189 14.4492 16.5797 14.459 16.6358 14.4826L21.2461 16.549C21.3239 16.5814 21.3892 16.638 21.4321 16.7106C21.475 16.7831 21.4934 16.8675 21.4844 16.9513Z" fill="black"/>
</svg>
